<?xml version="1.0" encoding="utf-8"?>
<!-- Generator: Adobe Illustrator 27.5.0, SVG Export Plug-In . SVG Version: 6.00 Build 0)  -->
<svg version="1.1" id="Capa_2" xmlns="http://www.w3.org/2000/svg" xmlns:xlink="http://www.w3.org/1999/xlink" x="0px" y="0px"
	 viewBox="0 0 2372 1898" style="enable-background:new 0 0 2372 1898;" xml:space="preserve">
<path style="fill:#15162B;" d="M737.498,1370.679c13.495,59.793,59.549,111.659,117.329,132.129
	c57.781,20.476,126.211,9.167,174.34-28.794c23.175-18.278,41.418-41.81,59.061-64.568c8.048-10.385,16.374-21.124,25.008-31.144
	c25.517-29.611,50.79-48.76,77.263-58.546c32.446-11.997,67.316-8.595,91.011,8.879c33.789,24.918,40.047,74.125,28.766,109.85
	c-10.633,33.669-35.241,65.489-75.225,97.279c-98.864,78.61-227.924,109.409-336.824,80.386
	c-85.352-22.747-182.853-90.973-208.281-192.111c-3.113-12.387-5.194-25.27-6.185-38.291c-3.66-48.09,7.635-99.684,31.15-146.932
	c-3.676-0.938-7.338-1.911-10.982-2.918c-23.711,48.491-35.048,101.336-31.291,150.696c1.041,13.654,3.222,27.165,6.49,40.165
	c26.531,105.539,127.717,176.581,216.229,200.173c27.995,7.463,57.274,11.099,87.029,11.099c89.527,0,183.368-32.915,259.61-93.534
	c41.78-33.217,67.594-66.793,78.918-102.649c14.781-46.81,1.299-97.055-32.784-122.188c-26.683-19.675-65.57-23.646-101.5-10.366
	c-28.29,10.458-55.063,30.648-81.844,61.727c-8.827,10.241-17.24,21.094-25.378,31.591c-17.229,22.227-35.047,45.214-57.149,62.645
	c-45.192,35.652-109.45,46.263-163.707,27.04c-54.256-19.226-97.502-67.926-110.172-124.073
	c-8.971-39.746-2.497-82.702,16.501-118.829c-3.83-0.656-7.651-1.344-11.46-2.064
	C734.468,1285.123,728.211,1329.517,737.498,1370.679z"/>
<path style="fill:#15162B;" d="M437.577,501.896c-16.673-36.597-60.964-133.807-23.093-170.194c2.025-1.947,4.268-3.553,6.64-4.815
	c0.243-0.105,0.477-0.228,0.702-0.366c7.86-3.914,17.019-4.055,24.366,0.083c2.688,1.512,6.084,0.561,7.596-2.122
	c1.512-2.685,0.561-6.084-2.122-7.596c-7.468-4.208-16.175-5.393-24.555-3.798c3.484-8.911,9.149-14.93,16.684-17.615
	c9.059-3.236,18.853-0.844,23.466,3.045c2.353,1.985,5.872,1.688,7.86-0.671c1.986-2.353,1.686-5.872-0.67-7.86
	c-5.364-4.519-14.784-7.982-25.135-7.055c8.119-8.405,19.869-13.441,30.901-12.536c19.228,1.609,29.875,21.917,37,39.426
	c4.499,11.053,7.816,22.878,11.025,34.315c1.539,5.485,3.078,10.971,4.747,16.41c3.173,10.352,6.73,21.298,12.188,31.324
	c2.83,5.196,6.896,11.681,13.307,15.75c10.764,6.833,23.703,4.766,35.107,2.952l1.002-0.158
	c50.847-8.073,103.943-1.296,153.554,19.572c20.734,8.721,40.427,19.854,58.516,32.941c4.768-1.19,9.555-2.321,14.359-3.395
	c-20.698-15.975-43.714-29.384-68.55-39.831c-51.535-21.677-106.74-28.695-159.626-20.307l-1.008,0.161
	c-9.922,1.58-20.174,3.211-27.377-1.354c-4.221-2.68-7.163-7.4-9.484-11.665c-4.965-9.115-8.315-19.455-11.322-29.262
	c-1.642-5.354-3.157-10.753-4.671-16.154c-3.293-11.733-6.697-23.867-11.434-35.504c-7.678-18.866-20.843-44.198-46.401-46.339
	c-19.877-1.662-40.671,10.783-49.286,29.619c-0.057,0.124-0.107,0.25-0.154,0.377c-6.798,4.727-14.238,13.316-17.741,28.856
	c-2.56,1.542-4.986,3.386-7.213,5.527c-43.572,41.864,1.446,140.673,20.669,182.864c24.057,52.799,59.737,99.296,103.436,134.888
	c2.246-2.965,4.528-5.904,6.842-8.816C495.421,598.103,460.884,553.055,437.577,501.896z"/>
<path style="fill:#D3B89A;" d="M1256.976,495.35c6.984,2.574,15.568-0.754,23.87-3.979l0.85-0.33
	c4.404-1.705,8.856-3.283,13.35-4.736c-19.318-4.46-38.664-8.775-58.055-12.848c2.931,4.784,6.111,9.451,9.698,13.618
	C1249.486,490.323,1252.896,493.847,1256.976,495.35z"/>
<path style="fill:#D3B89A;" d="M2117.188,920.638c-29.785-22.647-59.569-45.298-89.354-67.946
	c9.797-46.766,3.472-97.159-25.448-148.379c5.324-75.419-4.625-120.648-21.422-202.424c-2.205-10.738-6.423-23.285-17.801-27.008
	c-11.797-3.858-23.319,4.283-32.094,11.858c-36.703,31.695-73.408,63.39-110.113,95.084c-23.145-4.675-46.889-7.738-70.748-10.243
	c-0.354,22.326,0.684,44.714,3.122,67.085c0.335,3.061-1.88,5.815-4.941,6.15l-0.613,0.033c-2.808,0-5.227-2.116-5.537-4.973
	c-2.523-23.152-3.578-46.322-3.172-69.427c-17.357-1.713-34.734-3.219-51.949-4.922c11.319,30.885,24.295,60.474,38.672,88.035
	c1.425,2.732,0.365,6.101-2.367,7.525c-0.822,0.431-1.705,0.632-2.574,0.632c-2.013,0-3.955-1.089-4.952-2.999
	c-15.388-29.496-29.192-61.271-41.106-94.455c-1.265-0.134-2.529-0.27-3.792-0.408c-37.078-4.048-73.855-9.871-110.447-16.804
	c0.952,2.009,0.644,4.48-0.964,6.201c-1.101,1.174-2.585,1.768-4.075,1.768c-1.367,0-2.734-0.499-3.81-1.503
	c-3.893-3.642-7.931-7.161-12.096-10.555c-74.337-14.923-147.998-33.918-221.962-51.378c-10.872,2.549-21.537,5.837-31.922,9.86
	l-0.844,0.327c-9.764,3.786-20.825,8.078-31.766,4.045c-6.507-2.397-11.37-7.386-14.881-11.464
	c-6.358-7.383-11.367-15.82-15.926-23.93c-18.075-3.672-36.192-7.112-54.365-10.239c-8.474-1.458-16.986-2.84-25.527-4.141
	c-0.977,0.258-2.035,0.255-3.072-0.066c-7.025-2.174-14.806-0.38-20.808,4.391c-0.203,0.195-0.42,0.374-0.65,0.536
	c-1.776,1.509-3.382,3.285-4.745,5.306c-26.119,38.737,30.918,115.398,52.391,144.257c31.357,42.151,72.156,76.171,117.991,98.384
	c2.773,1.343,3.93,4.679,2.588,7.451c-0.964,1.989-2.952,3.146-5.022,3.146c-0.817,0-1.645-0.18-2.43-0.558
	c-47.442-22.993-89.655-58.182-122.076-101.764c-24.905-33.473-83.227-111.86-52.691-157.154c1.527-2.264,3.273-4.316,5.188-6.138
	c0.011-0.82,0.036-1.625,0.077-2.41c-96.254-12.04-195.257-12.663-288.135,8.108c-4.803,1.074-9.59,2.206-14.359,3.395
	c-48.418,12.082-95.02,30.201-138.521,55.806c-50.034,29.452-94.327,68.407-130.441,113.857c-2.314,2.912-4.596,5.851-6.842,8.816
	c-30.916,40.805-55.35,86.511-71.629,135.057c-11.286,33.656-18.458,69.103-20.942,104.75l0.65-0.226
	c50.563-17.674,106.122-20.58,160.695-8.422c56.234,12.531,106.682,39.873,145.894,79.071c4.876,4.875,9.595,9.963,14.032,15.121
	c2.007,2.334,1.743,5.856-0.594,7.866c-1.052,0.904-2.345,1.348-3.633,1.348c-1.569,0-3.129-0.659-4.232-1.942
	c-4.254-4.946-8.784-9.827-13.46-14.506c-37.172-37.158-87.046-64.173-140.434-76.07c-52.541-11.714-105.994-8.927-154.586,8.062
	l-0.956,0.335c-1.325,0.464-2.67,0.935-4.033,1.397c-2.858,71.682,13.467,143.451,53.618,202.414
	c25.639,37.651,58.396,67.375,95.866,90.599c6.446,1.666,12.857,3.189,19.245,4.575c164.989,35.758,308.599-1.953,384.126-100.914
	c1.871-2.454,5.374-2.912,7.817-1.052c2.452,1.869,2.92,5.368,1.051,7.817c-58.917,77.205-157.336,118.541-274.677,118.541
	c-32.952,0-67.381-3.259-102.86-9.896c25.916,12.599,53.503,22.659,82.112,30.563c3.645,1.007,7.306,1.981,10.982,2.918
	c12.674,3.232,25.529,6.059,38.509,8.512c3.81,0.72,7.631,1.408,11.46,2.064c57.917,9.93,117.991,12.7,175.403,11.171
	c288.552-7.685,570.341-86.232,844.368-177.167c0.499-33.77-2.194-67.564-8.084-101.11c-0.534-3.034,1.495-5.927,4.529-6.457
	c3.058-0.528,5.924,1.495,6.458,4.529c5.786,32.945,8.55,66.127,8.296,99.295c18.391-6.311,36.537-13.983,54.104-22.871
	c-13.947-32.207-29.695-62.877-46.876-91.15c-1.601-2.634-0.763-6.065,1.869-7.665c2.642-1.601,6.071-0.763,7.664,1.869
	c17.31,28.487,33.184,59.361,47.256,91.768c10.427-5.62,20.621-11.67,30.511-18.119c97.597-8.381,137.788-26.811,222.554-63.75
	c9.498-4.139,20.275-10.492,21.493-21.74C2135.688,936.333,2125.908,927.271,2117.188,920.638z"/>
<path style="fill:#15162B;" d="M1742.24,639.875c0.31,2.857,2.729,4.973,5.537,4.973l0.613-0.033
	c3.061-0.335,5.276-3.089,4.941-6.15c-2.439-22.371-3.477-44.759-3.122-67.085c0.641-40.474,5.861-80.745,15.629-120.346
	c0.739-2.994-1.087-6.014-4.077-6.752c-2.99-0.738-6.013,1.087-6.752,4.078c-9.895,40.112-15.218,80.897-15.939,121.888
	C1738.662,593.553,1739.717,616.723,1742.24,639.875z"/>
<path style="fill:#15162B;" d="M1720.852,661.718c0.869,0,1.751-0.201,2.574-0.632c2.732-1.424,3.791-4.793,2.367-7.525
	c-14.378-27.561-27.354-57.15-38.672-88.035c-13.308-36.313-24.325-74.418-32.626-113.129c-0.643-3.013-3.614-4.944-6.621-4.284
	c-3.012,0.645-4.932,3.609-4.284,6.621c8.019,37.406,18.545,74.265,31.206,109.53c11.914,33.185,25.718,64.959,41.106,94.455
	C1716.897,660.629,1718.839,661.718,1720.852,661.718z"/>
<path style="fill:#15162B;" d="M1787.555,980.359c-0.534-3.034-3.399-5.057-6.458-4.529c-3.034,0.531-5.063,3.424-4.529,6.457
	c5.89,33.546,8.583,67.34,8.084,101.11c-0.429,28.99-3.21,57.961-8.349,86.741c-0.542,3.034,1.479,5.929,4.51,6.471l0.986,0.087
	c2.653,0,5.003-1.896,5.485-4.597c5.474-30.67,8.329-61.552,8.565-92.445C1796.105,1046.486,1793.341,1013.304,1787.555,980.359z"/>
<path style="fill:#15162B;" d="M1804.948,957.968c-2.631,1.599-3.47,5.031-1.869,7.665c17.181,28.273,32.929,58.943,46.876,91.15
	c14.563,33.628,27.163,68.932,37.379,104.937c0.694,2.454,2.931,4.058,5.363,4.058c0.504,0,1.016-0.071,1.526-0.215
	c2.963-0.839,4.684-3.925,3.843-6.888c-10.422-36.736-23.299-72.763-38.196-107.07c-14.072-32.408-29.946-63.281-47.256-91.768
	C1811.019,957.206,1807.59,956.367,1804.948,957.968z"/>
<path style="fill:#15162B;" d="M1832.83,746.275c10.693-0.853,18.752-9.176,18.001-18.591c-0.751-9.415-10.027-16.355-20.72-15.503
	s-18.752,9.176-18.001,18.591C1812.862,740.187,1822.138,747.128,1832.83,746.275z"/>
<path style="fill:#15162B;" d="M1840.509,842.578c-10.693,0.853-18.752,9.176-18.002,18.591c0.751,9.414,10.027,16.356,20.72,15.503
	c10.693-0.852,18.752-9.176,18.001-18.591C1860.478,848.667,1851.202,841.726,1840.509,842.578z"/>
<path style="fill:#15162B;" d="M1783.871,777.19c-10.484-9.124-22.962,3.319-29.728,14.124c-0.285,0.091-0.567,0.204-0.842,0.344
	c-3.343,1.69-8.185,3.196-13.344,3.785c-0.959,0.048-1.919,0.124-2.877,0.228c-7.995,0.342-16.224-1.775-20.482-8.98
	c-5.036-8.525-5.365-22.26-0.779-32.659c2.416-5.48,5.888-9.061,9.524-9.824c3.015-0.632,4.946-3.587,4.314-6.602
	c-0.632-3.015-3.598-4.954-6.602-4.314c-7.307,1.531-13.504,7.299-17.444,16.241c-6.019,13.653-5.45,31.266,1.383,42.834
	c2.81,4.755,6.566,8.166,10.844,10.49c-3.855,2.974-7.023,6.938-9.043,12.08c-4.916,12.501-2.686,29.984,5.42,42.51
	c5.311,8.203,12.343,12.918,19.8,13.272l0.269,0.005c2.958,0,5.426-2.326,5.567-5.313c0.144-3.078-2.231-5.69-5.308-5.837
	c-3.712-0.174-7.708-3.159-10.962-8.187c-6.175-9.54-8.027-23.153-4.404-32.37c3.068-7.808,10.886-11.199,18.855-12.117
	c0.93-0.049,1.856-0.123,2.777-0.223c4.775-0.223,9.411,0.368,12.91,1.349c1.458,1.538,2.944,3.048,4.461,4.524
	c3.815,3.711,7.938,7.298,12.882,9.119c4.944,1.821,10.902,1.568,14.912-1.884c0.545-0.47,1.041-0.984,1.492-1.535
	c2.281-2.788,3.416-6.522,3.999-10.17c1.033-6.46,0.646-13.16-1.125-19.462C1789.135,784.324,1787.195,780.082,1783.871,777.19z"/>
<path style="fill:#15162B;" d="M724.678,1215.23c117.341,0,215.76-41.336,274.677-118.541c1.868-2.449,1.4-5.948-1.051-7.817
	c-2.443-1.86-5.945-1.403-7.817,1.052c-75.528,98.961-219.137,136.672-384.126,100.914c-6.388-1.385-12.799-2.909-19.245-4.575
	c-47.765-12.338-97.482-32.495-154.716-62.621c-50.321-26.49-94.587-65.965-128.014-114.162
	c-22.919-33.045-83.799-120.829-53.009-163.372c1.637-2.261,3.545-4.233,5.64-5.89c0.241-0.158,0.47-0.333,0.683-0.525
	c7.04-5.238,16.025-6.996,23.974-4.24c2.901,1.01,6.085-0.528,7.098-3.443c1.011-2.909-0.531-6.087-3.443-7.098
	c-8.088-2.803-16.871-2.42-24.838,0.641c1.842-9.395,6.346-16.329,13.284-20.314c8.342-4.791,18.406-4.183,23.63-1.179
	c2.677,1.544,6.084,0.618,7.615-2.054c1.536-2.672,0.615-6.082-2.054-7.615c-6.088-3.501-15.98-5.227-26-2.47
	c6.48-9.723,17.132-16.78,28.187-17.837c19.275-1.822,33.301,16.255,43.428,32.215c6.397,10.085,11.768,21.138,16.965,31.828
	c2.484,5.115,4.97,10.23,7.577,15.279c4.968,9.625,10.417,19.768,17.57,28.655c3.709,4.614,8.868,10.273,15.898,13.133
	c10.373,4.226,21.174,1.396,31.041-1.945c1.363-0.461,2.709-0.933,4.033-1.397l0.956-0.335
	c48.592-16.99,102.045-19.776,154.586-8.062c53.388,11.897,103.262,38.912,140.434,76.07c4.676,4.679,9.206,9.56,13.46,14.506
	c1.103,1.283,2.663,1.942,4.232,1.942c1.288,0,2.582-0.444,3.633-1.348c2.337-2.01,2.601-5.532,0.594-7.866
	c-4.437-5.159-9.157-10.246-14.032-15.121c-39.212-39.198-89.66-66.54-145.894-79.071c-54.573-12.158-110.131-9.252-160.695,8.422
	l-0.65,0.226l-0.312,0.109c-9.484,3.317-19.286,6.746-27.181,3.538c-4.633-1.885-8.367-6.006-11.409-9.791
	c-6.504-8.081-11.643-17.66-16.35-26.778c-2.566-4.97-5.011-10.006-7.457-15.042c-5.333-10.968-10.843-22.309-17.581-32.926
	c-10.913-17.202-28.289-39.786-53.908-37.346c-19.926,1.907-38.103,17.853-43.226,37.918c-0.034,0.13-0.06,0.261-0.084,0.392
	c-5.851,5.862-11.645,15.64-12.327,31.56c-2.246,1.971-4.304,4.216-6.116,6.718c-35.426,48.948,26.454,138.17,52.878,176.271
	c34.443,49.665,80.084,90.355,131.985,117.675c65.875,34.677,122.052,56.356,176.793,68.226c5.969,1.294,11.909,2.49,17.821,3.597
	C657.298,1211.971,691.726,1215.23,724.678,1215.23z"/>
<path style="fill:#15162B;" d="M1737.518,1036.914c-48.807-14.253-92.613-46.933-120.187-89.658
	c-27.573-42.719-39.306-96.099-32.195-146.45c0.43-3.051-1.695-5.872-4.745-6.302c-3.013-0.425-5.87,1.691-6.302,4.745
	c-7.482,52.965,4.865,109.118,33.868,154.06c29.008,44.942,75.092,79.319,126.434,94.315c0.523,0.152,1.048,0.226,1.566,0.226
	c2.416,0,4.641-1.583,5.352-4.017C1742.172,1040.874,1740.476,1037.777,1737.518,1036.914z"/>
<path style="fill:#15162B;" d="M873.953,519.519c3.058-0.381,5.227-3.167,4.845-6.223c-0.382-3.058-3.184-5.24-6.223-4.845
	C727.62,526.53,591.348,619.457,541.187,734.432c-1.231,2.825,0.057,6.112,2.882,7.343c0.727,0.316,1.485,0.468,2.228,0.468
	c2.151,0,4.2-1.253,5.114-3.349C599.304,629.117,734.954,536.856,873.953,519.519z"/>
<path style="fill:#15162B;" d="M1881.23,579.017l63.768-55.592c5.844,21.332,20.037,78.472,14.56,112.185
	c-0.495,3.04,1.569,5.905,4.611,6.398l0.899,0.074c2.689,0,5.055-1.944,5.499-4.684c7.214-44.397-16.271-122.281-17.276-125.576
	c-0.55-1.808-1.98-3.217-3.8-3.737c-1.819-0.521-3.772-0.085-5.202,1.157l-70.391,61.365c-2.32,2.027-2.563,5.548-0.539,7.872
	C1875.383,580.795,1878.905,581.04,1881.23,579.017z"/>
<path style="fill:#15162B;" d="M2062.749,948.904l-64.641-58.72c-2.283-2.073-5.812-1.898-7.879,0.379
	c-2.07,2.28-1.901,5.807,0.378,7.879l58.135,52.808c-19.558,7.877-70.307,26.892-101.944,25.465
	c-3.018-0.107-5.684,2.247-5.82,5.325c-0.136,3.074,2.247,5.681,5.325,5.82c1.269,0.057,2.557,0.085,3.876,0.085
	c42.379-0.003,108.189-28.549,111.054-29.799c1.735-0.76,2.963-2.342,3.271-4.208
	C2064.809,952.069,2064.149,950.176,2062.749,948.904z"/>
<path style="fill:#15162B;" d="M1942.509,758.044c19.65,5.703,36.82,19.117,47.107,36.804c1.035,1.778,2.903,2.773,4.826,2.773
	c0.95,0,1.918-0.243,2.8-0.757c2.661-1.547,3.565-4.962,2.015-7.626c-11.711-20.138-31.261-35.412-53.638-41.907
	c-2.963-0.85-6.052,0.844-6.913,3.802C1937.848,754.089,1939.551,757.185,1942.509,758.044z"/>
<path style="fill:#15162B;" d="M1953.977,717.478c-0.858,2.961,0.844,6.054,3.802,6.913c19.65,5.7,36.818,19.111,47.104,36.798
	c1.035,1.781,2.903,2.775,4.826,2.775c0.951,0,1.918-0.243,2.797-0.758c2.663-1.547,3.568-4.962,2.018-7.623
	c-11.711-20.143-31.261-35.417-53.635-41.907C1957.929,712.816,1954.833,714.52,1953.977,717.478z"/>
<path style="fill:#15162B;" d="M1103.892,459.974c-30.537,45.293,27.786,123.681,52.691,157.154
	c32.422,43.582,74.635,78.771,122.076,101.764c0.785,0.379,1.613,0.558,2.43,0.558c2.07,0,4.058-1.157,5.022-3.146
	c1.343-2.772,0.185-6.109-2.588-7.451c-45.835-22.214-86.634-56.234-117.991-98.384c-21.473-28.859-78.51-105.52-52.391-144.257
	c1.363-2.02,2.969-3.796,4.745-5.306c0.23-0.162,0.448-0.341,0.65-0.536c6.002-4.771,13.784-6.565,20.808-4.391
	c1.037,0.322,2.095,0.325,3.072,0.066c1.796-0.475,3.315-1.835,3.908-3.74c0.913-2.945-0.732-6.068-3.674-6.981
	c-7.141-2.212-14.762-1.748-21.682,0.942c1.48-7.804,5.155-13.665,10.867-17.202c7.157-4.434,15.946-4.206,20.585-1.743
	c2.718,1.449,6.095,0.417,7.541-2.307c1.446-2.718,0.414-6.095-2.306-7.542c-5.365-2.851-13.787-4.152-22.352-1.903
	c5.505-8.129,14.268-14.104,23.512-15.299c16.864-2.198,29.889,13.468,39.355,27.348c6.019,8.822,11.156,18.553,16.121,27.965
	c2.388,4.524,4.774,9.045,7.266,13.503c0.249,0.445,0.499,0.891,0.75,1.337c4.559,8.11,9.568,16.547,15.926,23.93
	c3.511,4.077,8.375,9.067,14.881,11.464c10.941,4.034,22.001-0.259,31.766-4.045l0.844-0.327c10.385-4.023,21.05-7.311,31.922-9.86
	c34.101-7.997,70.232-8.713,106.142-1.952c42.677,8.032,83.226,26.781,115.82,53.33c4.165,3.394,8.203,6.913,12.096,10.555
	c1.076,1.005,2.443,1.503,3.81,1.503c1.49,0,2.974-0.594,4.075-1.768c1.609-1.722,1.917-4.192,0.964-6.201
	c-0.292-0.616-0.7-1.189-1.229-1.683c-36.406-34.05-82.56-57.116-133.472-66.701c-44.556-8.384-89.477-5.724-130.809,7.638
	c-4.494,1.453-8.946,3.031-13.35,4.736l-0.85,0.33c-8.302,3.225-16.886,6.553-23.87,3.979c-4.08-1.503-7.49-5.027-10.287-8.274
	c-3.588-4.167-6.767-8.834-9.698-13.618c-1.996-3.256-3.878-6.566-5.693-9.813c-2.449-4.383-4.794-8.825-7.139-13.267
	c-5.112-9.688-10.398-19.705-16.772-29.047c-10.385-15.222-26.846-35.129-50-32.125c-18.043,2.332-34.078,17.36-38.122,35.737
	c-0.016,0.071-0.028,0.142-0.041,0.212c-4.786,5.178-9.394,13.435-10.069,26.27c-0.041,0.785-0.066,1.59-0.077,2.41
	C1107.164,455.659,1105.418,457.71,1103.892,459.974z"/>
<path style="fill:#15162B;" d="M1515.158,957.036c-36.409-34.05-82.563-57.116-133.472-66.701
	c-49.411-9.296-99.258-5.017-144.162,12.374l-0.85,0.33c-8.304,3.222-16.884,6.553-23.87,3.979c-4.08-1.504-7.49-5.028-10.287-8.274
	c-6.035-7.014-10.913-15.421-15.391-23.431c-2.452-4.385-4.796-8.83-7.144-13.275c-5.109-9.685-10.393-19.699-16.764-29.039
	c-10.388-15.222-26.857-35.123-50.002-32.124c-18.041,2.331-34.072,17.36-38.122,35.733c-0.016,0.073-0.029,0.147-0.042,0.22
	c-5.077,5.495-9.951,14.458-10.141,28.674c-1.916,1.823-3.661,3.876-5.189,6.142c-30.537,45.285,27.784,123.678,52.688,157.151
	c32.424,43.583,74.637,78.772,122.077,101.764c0.784,0.379,1.612,0.558,2.429,0.558c2.07,0,4.059-1.157,5.022-3.145
	c1.343-2.773,0.185-6.109-2.587-7.452c-45.832-22.214-86.632-56.234-117.992-98.381c-21.47-28.862-78.505-105.525-52.388-144.258
	c1.36-2.019,2.963-3.794,4.737-5.303c0.236-0.166,0.458-0.349,0.665-0.548c6.001-4.768,13.782-6.563,20.799-4.381
	c2.933,0.915,6.068-0.733,6.981-3.674c0.912-2.942-0.733-6.068-3.674-6.981c-7.141-2.213-14.761-1.751-21.68,0.938
	c1.48-7.805,5.156-13.665,10.867-17.2c7.158-4.434,15.947-4.205,20.582-1.743c2.721,1.446,6.098,0.417,7.542-2.307
	c1.446-2.718,0.414-6.096-2.307-7.541c-5.364-2.854-13.786-4.154-22.35-1.904c5.507-8.13,14.269-14.104,23.51-15.298
	c16.838-2.204,29.891,13.471,39.359,27.347c6.014,8.819,11.15,18.548,16.115,27.958c2.389,4.526,4.777,9.051,7.27,13.512
	c4.758,8.509,9.963,17.466,16.676,25.267c3.511,4.077,8.375,9.066,14.882,11.463c10.946,4.034,22.004-0.259,31.765-4.045
	l0.844-0.327c42.964-16.641,90.709-20.726,138.067-11.812c48.128,9.058,93.555,31.749,127.916,63.884
	c1.076,1.005,2.443,1.503,3.81,1.503c1.49,0,2.977-0.594,4.075-1.768C1517.526,962.672,1517.408,959.142,1515.158,957.036z"/>
</svg>
