<?xml version="1.0" encoding="utf-8"?>
<!-- Generator: Adobe Illustrator 27.5.0, SVG Export Plug-In . SVG Version: 6.00 Build 0)  -->
<svg version="1.1" id="Capa_2" xmlns="http://www.w3.org/2000/svg" xmlns:xlink="http://www.w3.org/1999/xlink" x="0px" y="0px"
	 viewBox="0 0 2122 2122" style="enable-background:new 0 0 2122 2122;" xml:space="preserve">
<path style="fill:#EFD4CC;" d="M1765.43,802.945c-2.05-2.636-4.123-5.254-6.215-7.856c-20.694-25.729-43.464-49.789-68.189-71.794
	c-2.504-2.227-5.027-4.433-7.569-6.617c-0.305-0.262-0.609-0.524-0.915-0.786c-159.394-136.398-378.865-185.239-588.841-174.901
	c-101.798,41.457-194.997,104.065-271.108,183.393c-67.776,70.52-124.477,172.475-86.975,262.722
	c34.125,81.965,128.591,116.196,203.277,164.194c88.242,56.7,157.602,144.257,186.506,245.104
	c28.957,100.848,15.665,214.355-41.088,302.596c-24.948,38.82-60.234,73.896-105.015,85.025
	c-72.313,17.934-143.096-30.064-200.482-77.587c-3.125-2.588-6.271-5.192-9.439-7.801l-71.044-4.627
	c-2.75-0.18-4.833-2.553-4.655-5.303c0.18-2.75,2.597-4.803,5.303-4.655l57.076,3.718c-7.382-5.953-14.88-11.857-22.499-17.59
	l-33.38,8.647l-1.255,0.161c-2.219,0-4.246-1.493-4.828-3.739c-0.689-2.668,0.911-5.391,3.578-6.083l25.519-6.611
	c-10.763-7.73-21.764-15.017-33.018-21.522c-14.903,10.58-24.216,27.385-24.143,44.262c0.08,18.757,11.749,37.347,29.727,47.361
	c2.407,1.34,3.272,4.38,1.93,6.787c-0.914,1.637-2.612,2.56-4.363,2.56c-0.821,0-1.654-0.203-2.424-0.631
	c-21.072-11.739-34.75-33.734-34.847-56.034c-0.079-18.613,9.304-37.075,24.601-49.583c-13.592-7.205-27.546-13.162-41.885-17.302
	c-1.834,2.13-4.007,3.364-6.34,3.364c-3.444,0-6.546-2.693-8.711-6.991c-13.353-2.57-27.034-3.457-41.059-2.221
	c-29.691,2.612-57.589,14.579-84.597,29.911c11.001,11.938,17.492,27.327,17.426,42.821c-0.097,22.299-13.776,44.295-34.847,56.034
	c-0.77,0.428-1.603,0.631-2.424,0.631c-1.751,0-3.449-0.924-4.363-2.56c-1.342-2.407-0.477-5.447,1.93-6.787
	c17.978-10.014,29.646-28.604,29.727-47.361c0.059-13.68-6.049-27.312-16.301-37.621c-9.362,5.583-18.626,11.496-27.833,17.484
	l15.471,4.008c2.668,0.692,4.268,3.415,3.579,6.083c-0.582,2.246-2.609,3.739-4.828,3.739l-1.254-0.161l-24.262-6.285
	c-7.548,4.947-15.067,9.874-22.579,14.639l48.037-3.129c2.668-0.197,5.121,1.903,5.303,4.655c0.178,2.75-1.905,5.123-4.655,5.303
	l-66.946,4.361c-39.544,23.203-79.366,38.727-122.585,25.843c-13.45-4.008-25.318-10.443-35.709-18.777
	c73.21,153.91,267.996,203.753,496.696,203.753c130.174,0,249.324-31.7,341.364-84.233c7.648-1.266,15.402-2.426,23.102-3.428
	c83.758-10.813,169.047-3.956,252.805-14.61c97.157-12.341,189.766-50.197,269.848-106.311c-8.19-1.531-16.28-3.616-24.19-6.379
	c-39.901-13.942-71.099-43.791-89.813-81.389c-12.218-24.547-20.26-52.139-23.623-79.324c-2.835-22.919-1.183-47.09,10.737-67.397
	c10.254-17.468,26.68-30.035,44.028-39.916c19.497-11.105,40.489-19.382,61.029-28.303c22.865-9.93,46.582-20.294,66.364-35.714
	c23.38-18.224,38.745-43.525,44.234-72.632c5.405-28.669,2.163-58.378-2.755-86.87c-5.046-29.234-12.528-57.983-13.82-87.758
	c-1.047-24.128,2.573-48.918,17.45-68.665c17.55-23.297,44.982-34.535,71.447-44.422c17.972-6.713,37.445-12.038,53.574-22.75
	c3.606-2.395,6.846-5.142,9.79-8.113C1836.471,910.664,1804.917,853.711,1765.43,802.945z"/>
<path style="fill:#E9C3B9;" d="M1880.119,1359.782c0.098-0.353,0.194-0.705,0.291-1.058c0.167-0.607,0.333-1.214,0.498-1.821
	c0.107-0.395,0.213-0.789,0.319-1.184c0.151-0.558,0.3-1.116,0.448-1.675c0.11-0.412,0.219-0.824,0.327-1.237
	c0.151-0.57,0.299-1.141,0.448-1.711c0.103-0.4,0.208-0.799,0.31-1.199c0.147-0.569,0.292-1.138,0.437-1.707
	c0.101-0.397,0.203-0.794,0.303-1.192c0.155-0.615,0.309-1.231,0.462-1.847c0.087-0.35,0.176-0.7,0.262-1.051
	c0.21-0.853,0.419-1.706,0.625-2.56c0.026-0.108,0.052-0.216,0.079-0.324c0.236-0.979,0.469-1.959,0.7-2.939
	c0.047-0.201,0.094-0.403,0.141-0.604c0.182-0.775,0.362-1.55,0.54-2.324c0.071-0.306,0.14-0.613,0.211-0.919
	c0.148-0.647,0.295-1.295,0.441-1.943c0.083-0.368,0.165-0.736,0.246-1.104c0.138-0.617,0.274-1.233,0.41-1.85
	c0.085-0.385,0.169-0.771,0.252-1.156c0.126-0.581,0.251-1.163,0.376-1.744c0.083-0.386,0.165-0.771,0.247-1.157
	c0.136-0.643,0.27-1.286,0.404-1.929c0.068-0.326,0.137-0.651,0.204-0.977c0.163-0.788,0.324-1.577,0.483-2.365
	c0.034-0.17,0.07-0.34,0.104-0.511c0.403-2.002,0.796-4.006,1.178-6.012c0.026-0.138,0.052-0.276,0.078-0.414
	c0.159-0.839,0.317-1.677,0.472-2.516c0.05-0.272,0.099-0.544,0.149-0.816c0.134-0.729,0.268-1.459,0.398-2.189
	c0.047-0.257,0.093-0.515,0.139-0.773c0.131-0.738,0.262-1.476,0.391-2.215c0.048-0.28,0.097-0.56,0.146-0.841
	c0.124-0.721,0.247-1.443,0.37-2.164c0.047-0.278,0.095-0.556,0.141-0.834c0.12-0.709,0.236-1.419,0.353-2.129
	c0.048-0.293,0.097-0.587,0.145-0.881c0.131-0.811,0.261-1.621,0.39-2.432c0.026-0.161,0.051-0.323,0.077-0.484
	c0.478-3.044,0.934-6.092,1.365-9.142c0.013-0.096,0.026-0.192,0.04-0.288c0.127-0.899,0.251-1.799,0.374-2.699
	c0.024-0.173,0.047-0.346,0.07-0.519c0.114-0.844,0.227-1.688,0.337-2.533c0.023-0.177,0.046-0.355,0.069-0.532
	c0.107-0.825,0.213-1.65,0.317-2.476c0.025-0.2,0.05-0.401,0.075-0.602c0.11-0.876,0.217-1.754,0.323-2.631l0.038-0.317
	c0.615-5.137,1.165-10.281,1.647-15.431c0.005-0.053,0.01-0.106,0.014-0.16c0.091-0.976,0.18-1.953,0.267-2.931
	c0.006-0.061,0.011-0.123,0.017-0.184c8.444-95.704-5.842-193.388-39.851-283.574c-2.947,2.976-6.179,5.714-9.79,8.113
	c-16.13,10.712-35.603,16.036-53.574,22.75c-26.466,9.887-53.897,21.125-71.447,44.422c-14.877,19.747-18.497,44.537-17.45,68.665
	c1.292,29.775,8.774,58.524,13.82,87.758c4.918,28.492,8.161,58.201,2.755,86.87c-5.488,29.107-20.854,54.408-44.234,72.632
	c-19.782,15.42-43.499,25.784-66.364,35.714c-20.54,8.921-41.532,17.198-61.029,28.303c-17.348,9.881-33.774,22.448-44.028,39.916
	c-11.92,20.306-13.572,44.478-10.737,67.397c3.363,27.185,11.405,54.778,23.623,79.324c18.714,37.597,49.912,67.446,89.813,81.389
	c7.931,2.771,16.042,4.861,24.254,6.393c101.803-71.334,183.305-172.245,227.889-288.131c0.011-0.029,0.022-0.058,0.033-0.088
	c0.371-0.965,0.74-1.932,1.106-2.899c0.032-0.084,0.064-0.168,0.096-0.252c0.34-0.901,0.679-1.804,1.015-2.708
	c0.05-0.135,0.101-0.27,0.151-0.406c1.119-3.011,2.212-6.033,3.28-9.064c0.042-0.122,0.085-0.244,0.128-0.366
	c0.295-0.838,0.588-1.676,0.879-2.516c0.094-0.268,0.186-0.537,0.278-0.805c0.247-0.72,0.495-1.441,0.74-2.162
	c0.097-0.284,0.193-0.568,0.289-0.852c0.259-0.765,0.516-1.531,0.772-2.297c0.07-0.213,0.142-0.425,0.213-0.639
	c0.284-0.854,0.565-1.708,0.845-2.563c0.05-0.153,0.101-0.306,0.151-0.459c0.323-0.99,0.644-1.981,0.961-2.973
	c0.059-0.184,0.117-0.367,0.176-0.551c0.255-0.799,0.509-1.599,0.761-2.4c0.097-0.309,0.194-0.62,0.29-0.93
	c0.209-0.669,0.417-1.339,0.624-2.009c0.113-0.366,0.226-0.733,0.337-1.1c0.195-0.634,0.388-1.269,0.579-1.904
	c0.105-0.348,0.211-0.697,0.316-1.045c0.213-0.71,0.424-1.42,0.635-2.132c0.083-0.283,0.168-0.566,0.251-0.849
	c0.291-0.99,0.581-1.981,0.867-2.973c0.274-0.954,0.547-1.908,0.817-2.864c0.088-0.31,0.174-0.622,0.262-0.933
	C1879.752,1361.096,1879.937,1360.439,1880.119,1359.782z"/>
<path style="fill:#E9C3B9;" d="M409.241,1698.37l-86.693,5.647l-0.329,0.01c-2.607,0-4.801-2.024-4.974-4.665
	c-0.178-2.75,1.905-5.123,4.655-5.303l105.602-6.878c7.512-4.766,15.031-9.692,22.579-14.639l-128.844-33.376
	c-2.668-0.692-4.268-3.415-3.579-6.083c0.692-2.665,3.405-4.256,6.083-3.579l137.634,35.654
	c9.207-5.988,18.471-11.901,27.833-17.484c-3.802-3.823-8.173-7.19-13.012-9.931c-2.397-1.359-3.238-4.402-1.881-6.802
	c1.359-2.394,4.404-3.245,6.802-1.88c6.404,3.628,12.109,8.209,16.944,13.456c27.008-15.331,54.906-27.299,84.597-29.911
	c14.026-1.236,27.707-0.349,41.059,2.221c-1.948-3.868-3.139-9.035-3.139-14.712c0-11.986,5.306-21.703,11.85-21.703
	c6.545,0,11.851,9.717,11.851,21.703c0,7.716-2.199,14.491-5.511,18.339c14.339,4.14,28.293,10.098,41.885,17.302
	c3.033-2.48,6.298-4.729,9.769-6.695c2.4-1.365,5.445-0.514,6.802,1.88c1.357,2.4,0.516,5.443-1.881,6.802
	c-1.789,1.014-3.513,2.114-5.17,3.29c11.254,6.505,22.255,13.792,33.018,21.522l127.586-33.051c2.673-0.679,5.391,0.914,6.083,3.579
	c0.689,2.668-0.911,5.391-3.579,6.083l-119.726,31.014c7.619,5.732,15.117,11.637,22.499,17.59l96.566,6.29
	c2.75,0.18,4.833,2.553,4.655,5.303c-0.173,2.638-2.368,4.665-4.974,4.665l-0.329-0.01l-82.598-5.38
	c3.168,2.609,6.314,5.213,9.439,7.801c57.386,47.523,128.169,95.521,200.482,77.587c44.781-11.129,80.067-46.204,105.015-85.025
	c56.753-88.241,70.045-201.748,41.088-302.596c-28.904-100.847-98.264-188.404-186.506-245.104
	c-74.686-47.998-169.152-82.229-203.277-164.194c-37.502-90.247,19.199-192.202,86.975-262.722
	c76.111-79.328,169.31-141.935,271.108-183.393c-6.277,0.264-12.501,0.633-18.724,1.055
	C810.146,559.61,506.442,688.308,403.96,951.767c-24.948,64.243-36.869,134.077-33.546,203.067
	c1.371,29.431,5.592,58.757,12.66,87.398c3.292,13.266,9.089,28.389,9.538,42.633c41.187,6.823,79.198,19.923,128.964,39.885
	c2.558,1.025,3.8,3.932,2.774,6.487c-1.026,2.555-3.927,3.803-6.487,2.774c-50.252-20.156-88.282-33.207-129.821-39.766
	c-10.265,6.433-20.148,13.138-29.625,20.097c32.276,18.383,61.348,50.861,76.817,89.425c1.026,2.555-0.217,5.461-2.774,6.487
	c-0.609,0.244-1.238,0.361-1.854,0.361c-1.978,0-3.852-1.186-4.633-3.135c-15.284-38.102-44.452-69.901-76.185-86.643
	c-25.166,19.41-47.244,40.679-65.722,63.459c1.258,17.226,4.221,36.762,8.898,58.574c0.58,2.692-1.137,5.345-3.832,5.922
	l-1.05,0.112c-2.302,0-4.37-1.6-4.872-3.944c-3.829-17.854-6.544-34.19-8.15-49.057c-35.314,47.649-55.18,101.39-55.18,158.259
	c0,59.021,10.971,109.076,31.067,151.271c10.391,8.334,22.259,14.769,35.709,18.777
	C329.875,1737.097,369.696,1721.573,409.241,1698.37z"/>
<path style="fill:#15162B;" d="M1721.079,598.493c-12.319-41.593-42.166-79.735-91.242-116.599
	c-16.809-12.626-34.619-24.346-51.842-35.681c-23.133-15.225-47.054-30.969-68.536-48.933
	c-23.33-19.508-36.889-36.531-43.966-55.201c-9.026-23.805-6.789-51.754,5.983-74.763c12.424-22.387,34.19-39.444,59.71-46.801
	c10.487-3.023,26.075-5.562,40.791-0.509c13.691,4.702,22.417,13.82,23.942,25.014c1.53,11.232-4.67,22.818-16.583,30.994
	c-1.715,1.179-3.473,2.341-5.24,3.505c-10.475,6.921-21.308,14.078-26.614,26.115c-9.384,21.272,4.429,45.011,20.48,60.134
	c22.774,21.464,51.222,35.447,78.735,48.969c4.039,1.986,8.073,3.969,12.086,5.971c44.343,22.146,75.566,42.224,101.237,65.103
	c32.47,28.943,55.199,62.743,65.73,97.746c2.375,7.893,4.202,16.112,5.427,24.426c4.872,33.021,0.641,67.754-12.239,100.448
	c-12.476,31.686-32.94,61.303-59.726,86.658c2.092,2.602,4.165,5.22,6.215,7.856c28.161-26.491,49.683-57.559,62.794-90.857
	c13.517-34.314,17.954-70.816,12.826-105.561c-1.296-8.792-3.23-17.488-5.744-25.844c-11.062-36.77-34.799-72.151-68.643-102.321
	c-33.781-30.105-73.014-51.396-103.42-66.58c-4.029-2.013-8.083-4.005-12.141-6c-26.85-13.196-54.612-26.843-76.295-47.276
	c-13.571-12.784-25.476-32.331-18.192-48.848c4.124-9.352,13.284-15.406,22.984-21.812c1.815-1.199,3.622-2.392,5.386-3.603
	c15.086-10.356,22.87-25.52,20.821-40.568c-2.02-14.845-13.454-27.223-30.587-33.106c-13.598-4.665-29.779-4.546-46.794,0.358
	c-28.039,8.083-51.976,26.87-65.674,51.547c-14.178,25.544-16.641,56.626-6.587,83.142c10.002,26.385,31.554,46.49,46.894,59.318
	c21.919,18.331,46.085,34.234,69.452,49.615c17.096,11.25,34.774,22.884,51.335,35.325c47.303,35.53,75.978,71.988,87.666,111.454
	c11.018,37.205,4.17,87.312-28.053,115.35c2.542,2.185,5.065,4.39,7.569,6.617C1725.518,692.312,1732.92,638.474,1721.079,598.493z"
	/>
<path style="fill:#15162B;" d="M641.553,1683.953c-2.775-0.28-5.174,1.761-5.43,4.504c-0.69,7.411-5.167,11.754-8.804,14.092
	c-5.896,3.796-13.81,4.97-19.708,2.921c-11.818-4.105-16.563-12.706-16.838-33.168c1.962-1.38,3.89-2.806,5.778-4.282
	c3.815-2.983,7.556-6.258,9.807-10.492c2.251-4.234,2.756-9.637,0.138-13.678c-0.356-0.549-0.759-1.06-1.201-1.535
	c-2.232-2.4-5.46-3.883-8.677-4.858c-5.698-1.726-11.787-2.202-17.687-1.382c-4.019,0.559-8.083,1.786-11.1,4.427
	c-10.935,9.57,3.475,25.018,12.939,31.475c-0.229,20.696-4.963,29.364-16.844,33.492c-5.898,2.048-13.815,0.87-19.705-2.919
	c-3.637-2.341-8.114-6.684-8.806-14.095c-0.256-2.743-2.633-4.775-5.43-4.504c-2.743,0.256-4.76,2.687-4.504,5.43
	c0.828,8.901,5.566,16.558,13.34,21.559c5.591,3.598,12.341,5.495,18.809,5.495c3.333,0,6.589-0.504,9.571-1.54
	c9.131-3.172,14.982-8.401,18.57-15.67c3.587,7.269,9.438,12.498,18.568,15.67c2.982,1.036,6.239,1.54,9.571,1.54
	c6.468,0,13.22-1.9,18.811-5.495c7.773-5.004,12.509-12.66,13.337-21.559C646.313,1686.64,644.296,1684.209,641.553,1683.953z"/>
<path style="fill:#15162B;" d="M856.861,1633.081c-0.692-2.665-3.41-4.258-6.083-3.579l-127.586,33.051l-25.519,6.611
	c-2.667,0.692-4.268,3.415-3.578,6.083c0.582,2.246,2.609,3.739,4.828,3.739l1.255-0.161l33.38-8.647l119.726-31.014
	C855.95,1638.472,857.55,1635.749,856.861,1633.081z"/>
<path style="fill:#15162B;" d="M852.304,1704.026c2.606,0,4.801-2.027,4.974-4.665c0.178-2.75-1.905-5.123-4.655-5.303l-96.566-6.29
	l-57.076-3.718c-2.706-0.148-5.123,1.905-5.303,4.655c-0.178,2.75,1.905,5.123,4.655,5.303l71.044,4.627l82.598,5.38
	L852.304,1704.026z"/>
<path style="fill:#15162B;" d="M843.923,1755.217l-143.162-56.66c-2.58-1.014-5.464,0.244-6.475,2.801
	c-1.016,2.562,0.242,5.461,2.801,6.475l143.162,56.66c0.604,0.239,1.225,0.353,1.834,0.353c1.988,0,3.866-1.196,4.641-3.155
	C847.741,1759.13,846.484,1756.231,843.923,1755.217z"/>
<path style="fill:#15162B;" d="M317.659,1633.081c-0.69,2.668,0.911,5.391,3.579,6.083l128.844,33.376l24.262,6.285l1.254,0.161
	c2.22,0,4.246-1.493,4.828-3.739c0.689-2.668-0.911-5.391-3.579-6.083l-15.471-4.008l-137.634-35.654
	C321.064,1628.825,318.35,1630.416,317.659,1633.081z"/>
<path style="fill:#15162B;" d="M317.245,1699.361c0.173,2.641,2.368,4.665,4.974,4.665l0.329-0.01l86.693-5.647l66.946-4.361
	c2.75-0.18,4.833-2.553,4.655-5.303c-0.183-2.752-2.636-4.852-5.303-4.655l-48.037,3.129l-105.602,6.878
	C319.149,1694.238,317.067,1696.611,317.245,1699.361z"/>
<path style="fill:#15162B;" d="M480.233,1701.359c-1.013-2.558-3.892-3.815-6.475-2.801l-143.162,56.66
	c-2.56,1.013-3.818,3.912-2.801,6.475c0.774,1.959,2.653,3.155,4.64,3.155c0.609,0,1.23-0.115,1.834-0.353l143.162-56.66
	C479.992,1706.82,481.249,1703.921,480.233,1701.359z"/>
<path style="fill:#15162B;" d="M481.118,1629.059c-2.397-1.365-5.442-0.514-6.802,1.88c-1.357,2.4-0.516,5.443,1.881,6.802
	c4.839,2.742,9.21,6.108,13.012,9.931c10.251,10.309,16.359,23.941,16.301,37.621c-0.08,18.757-11.749,37.347-29.727,47.361
	c-2.407,1.34-3.272,4.38-1.93,6.787c0.914,1.637,2.612,2.56,4.363,2.56c0.821,0,1.654-0.203,2.424-0.631
	c21.072-11.739,34.75-33.734,34.847-56.034c0.066-15.494-6.425-30.884-17.426-42.821
	C493.227,1637.269,487.522,1632.687,481.118,1629.059z"/>
<path style="fill:#15162B;" d="M697.224,1630.94c-1.357-2.394-4.402-3.245-6.802-1.88c-3.471,1.967-6.736,4.215-9.769,6.695
	c-15.297,12.507-24.68,30.969-24.601,49.583c0.097,22.299,13.776,44.295,34.847,56.034c0.77,0.428,1.603,0.631,2.424,0.631
	c1.751,0,3.449-0.924,4.363-2.56c1.342-2.407,0.477-5.447-1.93-6.787c-17.978-10.014-29.646-28.604-29.727-47.361
	c-0.073-16.877,9.24-33.682,24.143-44.262c1.656-1.176,3.381-2.276,5.17-3.29C697.741,1636.382,698.581,1633.339,697.224,1630.94z"
	/>
<path style="fill:#15162B;" d="M288.083,1448.906l1.05-0.112c2.695-0.578,4.412-3.23,3.832-5.922
	c-4.677-21.812-7.641-41.348-8.898-58.574c-2.562-35.089,1.967-60.579,13.572-76.116c0.329,0.049,0.668,0.065,1.01,0.043
	c16.636-0.942,34.251,3.704,51.14,12.614c31.733,16.741,60.901,48.541,76.185,86.643c0.782,1.949,2.655,3.135,4.633,3.135
	c0.616,0,1.245-0.117,1.854-0.361c2.558-1.025,3.8-3.931,2.774-6.487c-15.469-38.564-44.541-71.042-76.817-89.425
	c-16.498-9.396-33.833-15.111-50.616-16.07c9.239-6.43,21.14-9.222,36.106-8.488c15.527,0.754,30.033,2.234,44.135,4.461
	c41.538,6.559,79.569,19.61,129.821,39.766c2.56,1.028,5.461-0.219,6.487-2.774c1.026-2.555-0.216-5.462-2.774-6.487
	c-49.766-19.962-87.777-33.062-128.964-39.885c-15.373-2.546-31.187-4.221-48.222-5.048c-22.862-1.123-40.538,5.483-52.521,19.598
	c-16.161,19.03-21.739,50.806-16.808,96.49c1.605,14.867,4.32,31.203,8.15,49.057
	C283.712,1447.305,285.781,1448.906,288.083,1448.906z"/>
<path style="fill:#15162B;" d="M537.623,1621.816c6.545,0,11.851-9.717,11.851-21.703c0-11.986-5.306-21.703-11.851-21.703
	c-6.545,0-11.85,9.717-11.85,21.703C525.773,1612.099,531.078,1621.816,537.623,1621.816z"/>
<path style="fill:#15162B;" d="M632.429,1578.411c-6.544,0-11.85,9.717-11.85,21.703c0,5.677,1.191,10.844,3.139,14.712
	c2.165,4.298,5.266,6.991,8.711,6.991c2.332,0,4.506-1.234,6.34-3.364c3.312-3.848,5.511-10.623,5.511-18.339
	C644.28,1588.127,638.974,1578.411,632.429,1578.411z"/>
<path style="fill:#15162B;" d="M828.396,1441.457c71.822-40.629,112.304-56.857,166.597-66.782
	c19.655-3.595,34.819-0.253,46.306,10.213c-48.91,8.186-98.243,57.975-115.326,118.252c-0.753,2.651,0.787,5.408,3.439,6.158
	c0.453,0.129,0.911,0.193,1.362,0.193c2.175,0,4.175-1.435,4.797-3.632c16.84-59.414,66.345-107.953,113.572-111.911
	c30.279,43.752,15.512,144.924,8.167,195.217c-0.719,4.926-1.365,9.359-1.89,13.196c-2.809,20.521-6.417,40.882-10.721,60.517
	c-0.592,2.692,1.111,5.352,3.803,5.941l1.074,0.117c2.292,0,4.358-1.589,4.867-3.92c4.365-19.895,8.019-40.519,10.862-61.301
	c0.521-3.813,1.165-8.217,1.878-13.111c8.085-55.376,24.909-170.606-17.971-211.975c-13.88-13.396-32.725-18.024-56.012-13.771
	c-62.027,11.343-105.82,31.769-169.715,67.912c-2.399,1.357-3.242,4.402-1.888,6.799
	C822.954,1441.963,825.996,1442.816,828.396,1441.457z"/>
<path style="fill:#15162B;" d="M1830.411,1184.387c-2.777-0.163-5.045,2.102-5.113,4.86
	c-3.739,148.278-71.795,296.031-182.051,395.245c-2.049,1.842-2.214,4.996-0.37,7.045c0.984,1.094,2.343,1.651,3.71,1.651
	c1.189,0,2.383-0.421,3.335-1.281c112.253-101.011,181.544-251.442,185.349-402.406
	C1835.342,1186.746,1833.165,1184.456,1830.411,1184.387z"/>
<path style="fill:#15162B;" d="M1612.215,796.992c1.403,0,2.796-0.587,3.783-1.732c1.798-2.087,1.564-5.24-0.524-7.038
	c-143.062-123.221-333.159-187.162-521.629-175.371c-2.75,0.171-4.84,2.541-4.667,5.291c0.171,2.75,2.482,4.863,5.291,4.668
	c185.854-11.627,373.388,51.435,514.491,172.974C1609.903,796.595,1611.062,796.992,1612.215,796.992z"/>
<path style="fill:#15162B;" d="M621.261,1810.572c-19.447,15.432-49.415,16.292-69.712,2.005c-2.256-1.583-5.369-1.043-6.953,1.208
	c-1.586,2.253-1.045,5.367,1.208,6.953c11.316,7.964,25.196,11.91,39.094,11.91c15.306,0,30.629-4.787,42.565-14.261
	c2.158-1.713,2.519-4.85,0.806-7.009C626.557,1809.217,623.417,1808.861,621.261,1810.572z"/>
</svg>
