<?xml version="1.0" standalone="no"?>
<!DOCTYPE svg PUBLIC "-//W3C//DTD SVG 20010904//EN"
 "http://www.w3.org/TR/2001/REC-SVG-20010904/DTD/svg10.dtd">
<svg version="1.0" xmlns="http://www.w3.org/2000/svg"
 width="852.000000pt" height="741.000000pt" viewBox="0 0 852.000000 741.000000"
 preserveAspectRatio="xMidYMid meet">

<g transform="translate(0.000000,741.000000) scale(0.100000,-0.100000)"
fill="#000000" stroke="none">
<path d="M1860 7215 l0 -185 -185 0 -185 0 0 -370 0 -370 -185 0 -185 0 0
-370 0 -370 -185 0 -185 0 0 -555 0 -555 -185 0 -185 0 0 -740 0 -740 -185 0
-185 0 0 -925 0 -925 185 0 185 0 0 -185 0 -185 185 0 185 0 0 -185 0 -185
370 0 370 0 0 -185 0 -185 555 0 555 0 0 185 0 185 555 0 555 0 0 -185 0 -185
555 0 555 0 0 185 0 185 1480 0 1480 0 0 185 0 185 185 0 185 0 0 185 0 185
185 0 185 0 0 740 0 740 -185 0 -185 0 0 185 0 185 -370 0 -370 0 0 -185 0
-185 -185 0 -185 0 0 -185 0 -185 185 0 185 0 0 -370 0 -370 -555 0 -555 0 0
740 0 740 -185 0 -185 0 0 740 0 740 -185 0 -185 0 0 555 0 555 -185 0 -185 0
0 370 0 370 -185 0 -185 0 0 370 0 370 -185 0 -185 0 0 185 0 185 -185 0 -185
0 0 -185 0 -185 -185 0 -185 0 0 -185 0 -185 -555 0 -555 0 0 185 0 185 -185
0 -185 0 0 185 0 185 -185 0 -185 0 0 -185z m370 -555 l0 -370 185 0 185 0 0
-185 0 -185 555 0 555 0 0 185 0 185 185 0 185 0 0 370 0 370 185 0 185 0 0
-555 0 -555 185 0 185 0 0 -370 0 -370 185 0 185 0 0 -740 0 -740 185 0 185 0
0 -370 0 -370 -185 0 -185 0 0 -185 0 -185 185 0 185 0 0 -185 0 -185 185 0
185 0 0 -185 0 -185 -370 0 -370 0 0 -185 0 -185 185 0 185 0 0 -370 0 -370
-370 0 -370 0 0 555 0 555 -185 0 -185 0 0 -740 0 -740 -185 0 -185 0 0 555 0
555 -185 0 -185 0 0 -370 0 -370 -555 0 -555 0 0 370 0 370 -185 0 -185 0 0
-555 0 -555 -185 0 -185 0 0 740 0 740 -185 0 -185 0 0 -555 0 -555 -185 0
-185 0 0 185 0 185 -185 0 -185 0 0 185 0 185 185 0 185 0 0 185 0 185 -370 0
-370 0 0 185 0 185 185 0 185 0 0 185 0 185 185 0 185 0 0 185 0 185 -185 0
-185 0 0 370 0 370 185 0 185 0 0 740 0 740 185 0 185 0 0 370 0 370 185 0
185 0 0 555 0 555 185 0 185 0 0 -370z m5920 -4255 l0 -185 -370 0 -370 0 0
185 0 185 370 0 370 0 0 -185z m0 -925 l0 -370 -185 0 -185 0 0 -185 0 -185
-185 0 -185 0 0 370 0 370 185 0 185 0 0 185 0 185 185 0 185 0 0 -370z
m-1110 -555 l0 -185 -555 0 -555 0 0 185 0 185 555 0 555 0 0 -185z"/>
<path d="M1860 5365 l0 -185 185 0 185 0 0 185 0 185 -185 0 -185 0 0 -185z"/>
<path d="M4080 5365 l0 -185 185 0 185 0 0 185 0 185 -185 0 -185 0 0 -185z"/>
<path d="M2970 4995 l0 -185 -185 0 -185 0 0 -185 0 -185 185 0 185 0 0 185 0
185 185 0 185 0 0 -185 0 -185 185 0 185 0 0 185 0 185 -185 0 -185 0 0 185 0
185 -185 0 -185 0 0 -185z"/>
</g>
</svg>
